<svg width="815" height="467" viewBox="0 0 815 467" fill="none" xmlns="http://www.w3.org/2000/svg">
<path d="M41 145.177L58.8169 161.164C76.6339 177.152 112.164 209.126 148.006 203.83C183.484 198.135 219.169 156.168 254.492 123.894C290.333 92.2186 326.175 70.236 361.497 65.2399C397.183 60.2439 432.661 70.236 468.503 97.2147C504.033 124.193 539.667 166.16 575.508 209.126C610.883 252.092 646.672 294.059 681.994 294.359C717.784 294.059 753.158 252.092 771.339 230.409L789 209.126V369H771.183C753.366 369 717.836 369 681.994 369C646.516 369 610.831 369 575.508 369C539.667 369 503.825 369 468.503 369C432.817 369 397.339 369 361.497 369C325.967 369 290.333 369 254.492 369C219.118 369 183.328 369 148.006 369C112.216 369 76.8417 369 58.6611 369H41V145.177Z" fill="#0099FF"/>
<path d="M814.058 372.063C814.645 371.479 814.648 370.529 814.063 369.942L804.542 360.371C803.958 359.784 803.008 359.782 802.421 360.366C801.834 360.95 801.831 361.9 802.415 362.487L810.879 370.995L802.371 379.458C801.784 380.042 801.782 380.992 802.366 381.579C802.95 382.166 803.9 382.169 804.487 381.585L814.058 372.063ZM40.9961 370.5L812.996 372.5L813.004 369.5L41.0039 367.5L40.9961 370.5Z" fill="black"/>
<path d="M42.0607 0.93934C41.4749 0.353553 40.5251 0.353553 39.9393 0.93934L30.3934 10.4853C29.8076 11.0711 29.8076 12.0208 30.3934 12.6066C30.9792 13.1924 31.9289 13.1924 32.5147 12.6066L41 4.12132L49.4853 12.6066C50.0711 13.1924 51.0208 13.1924 51.6066 12.6066C52.1924 12.0208 52.1924 11.0711 51.6066 10.4853L42.0607 0.93934ZM42.5 369L42.5 2H39.5L39.5 369H42.5Z" fill="black"/>
<path d="M17.9545 52.1818V40.6477H17.6705C17.4242 41.0455 17.0739 41.5473 16.6193 42.1534C16.1648 42.75 15.5161 43.285 14.6733 43.7585C13.8305 44.2225 12.7083 44.4545 11.3068 44.4545C9.48864 44.4545 7.88352 43.9953 6.49148 43.0767C5.09943 42.1487 4.01042 40.8419 3.22443 39.1562C2.43845 37.4612 2.04545 35.4583 2.04545 33.1477C2.04545 30.8561 2.43845 28.8674 3.22443 27.1818C4.01042 25.4962 5.10417 24.1941 6.50568 23.2756C7.9072 22.357 9.52652 21.8977 11.3636 21.8977C12.7841 21.8977 13.9063 22.1345 14.7301 22.608C15.5634 23.072 16.1979 23.6023 16.6335 24.1989C17.0786 24.786 17.4242 25.2689 17.6705 25.6477H18.0682V22.1818H21.3068V52.1818H17.9545ZM11.7614 41.4432C13.1061 41.4432 14.2424 41.0928 15.1705 40.392C16.0985 39.6818 16.804 38.7017 17.2869 37.4517C17.7699 36.1922 18.0114 34.7386 18.0114 33.0909C18.0114 31.4621 17.7746 30.0369 17.3011 28.8153C16.8277 27.5843 16.1269 26.6278 15.1989 25.946C14.2708 25.2547 13.125 24.9091 11.7614 24.9091C10.3409 24.9091 9.1572 25.2737 8.21023 26.0028C7.27273 26.7225 6.56723 27.7027 6.09375 28.9432C5.62973 30.1742 5.39773 31.5568 5.39773 33.0909C5.39773 34.6439 5.63447 36.0549 6.10795 37.3239C6.59091 38.5833 7.30114 39.5871 8.23864 40.3352C9.18561 41.0739 10.3598 41.4432 11.7614 41.4432Z" fill="black"/>
<path d="M801.557 388.182V391.023H790.25V388.182H801.557ZM793.545 382.955H796.898V403.75C796.898 404.697 797.035 405.407 797.31 405.881C797.594 406.345 797.954 406.657 798.389 406.818C798.834 406.97 799.303 407.045 799.795 407.045C800.165 407.045 800.468 407.027 800.705 406.989C800.941 406.941 801.131 406.903 801.273 406.875L801.955 409.886C801.727 409.972 801.41 410.057 801.003 410.142C800.596 410.237 800.08 410.284 799.455 410.284C798.508 410.284 797.58 410.08 796.67 409.673C795.771 409.266 795.023 408.646 794.426 407.812C793.839 406.979 793.545 405.928 793.545 404.659V382.955Z" fill="black"/>
<path d="M215.307 458.455C213.489 458.455 211.884 457.995 210.491 457.077C209.099 456.149 208.01 454.842 207.224 453.156C206.438 451.461 206.045 449.458 206.045 447.148C206.045 444.856 206.438 442.867 207.224 441.182C208.01 439.496 209.104 438.194 210.506 437.276C211.907 436.357 213.527 435.898 215.364 435.898C216.784 435.898 217.906 436.134 218.73 436.608C219.563 437.072 220.198 437.602 220.634 438.199C221.079 438.786 221.424 439.269 221.67 439.648H221.955V428.909H225.307V458H222.068V454.648H221.67C221.424 455.045 221.074 455.547 220.619 456.153C220.165 456.75 219.516 457.285 218.673 457.759C217.83 458.223 216.708 458.455 215.307 458.455ZM215.761 455.443C217.106 455.443 218.242 455.093 219.17 454.392C220.098 453.682 220.804 452.702 221.287 451.452C221.77 450.192 222.011 448.739 222.011 447.091C222.011 445.462 221.775 444.037 221.301 442.815C220.828 441.584 220.127 440.628 219.199 439.946C218.271 439.255 217.125 438.909 215.761 438.909C214.341 438.909 213.157 439.274 212.21 440.003C211.273 440.723 210.567 441.703 210.094 442.943C209.63 444.174 209.398 445.557 209.398 447.091C209.398 448.644 209.634 450.055 210.108 451.324C210.591 452.583 211.301 453.587 212.239 454.335C213.186 455.074 214.36 455.443 215.761 455.443ZM241.401 436.182V439.023H230.094V436.182H241.401ZM233.389 430.955H236.741V451.75C236.741 452.697 236.879 453.407 237.153 453.881C237.438 454.345 237.797 454.657 238.233 454.818C238.678 454.97 239.147 455.045 239.639 455.045C240.009 455.045 240.312 455.027 240.548 454.989C240.785 454.941 240.974 454.903 241.116 454.875L241.798 457.886C241.571 457.972 241.254 458.057 240.847 458.142C240.439 458.237 239.923 458.284 239.298 458.284C238.351 458.284 237.423 458.08 236.514 457.673C235.615 457.266 234.866 456.646 234.27 455.812C233.683 454.979 233.389 453.928 233.389 452.659V430.955Z" fill="black"/>
<g clip-path="url(#clip0_1_41)">
<path d="M-218 234C-218 234 -154.094 143 -13.5 143C127.094 143 191 234 191 234" stroke="#360DDA" stroke-width="3" stroke-linecap="round" stroke-linejoin="round"/>
</g>
<g clip-path="url(#clip1_1_41)">
<path d="M349 -25C349 -25 285.094 214 144.5 214C3.90626 214 -60 -25 -60 -25" stroke="#360DDA" stroke-width="3" stroke-linecap="round" stroke-linejoin="round"/>
</g>
<g clip-path="url(#clip2_1_41)">
<path d="M260 124C260 124 302.031 73 394.5 73C486.969 73 529 124 529 124" stroke="#360DDA" stroke-width="3" stroke-linecap="round" stroke-linejoin="round"/>
</g>
<g clip-path="url(#clip3_1_41)">
<path d="M212.32 204C212.32 204 264.925 68 380.656 68C496.387 68 548.992 204 548.992 204" stroke="#360DDA" stroke-width="3" stroke-linecap="round" stroke-linejoin="round"/>
</g>
<g clip-path="url(#clip4_1_41)">
<path d="M858 154C858 154 805.813 300 691 300C576.188 300 524 154 524 154" stroke="#360DDA" stroke-width="3" stroke-linecap="round" stroke-linejoin="round"/>
</g>
<g clip-path="url(#clip5_1_41)">
<path d="M815.209 154C815.209 154 773.926 300 683.104 300C592.283 300 551 154 551 154" stroke="#360DDA" stroke-width="3" stroke-linecap="round" stroke-linejoin="round"/>
</g>
<path d="M170 209.5V210H171V209.5H170ZM171 195.5C171 195.224 170.776 195 170.5 195C170.224 195 170 195.224 170 195.5H171ZM171 209.5V195.5H170V209.5H171Z" fill="#FB0A0A"/>
<line x1="170.5" y1="209.009" x2="167.5" y2="369.009" stroke="black"/>
<line x1="298.5" y1="95.0091" x2="293.5" y2="369.009" stroke="black"/>
<line x1="424.5" y1="75.0085" x2="419.5" y2="370.008" stroke="black"/>
<line x1="549.5" y1="205.012" x2="545.5" y2="371.012" stroke="black"/>
<line x1="683.5" y1="301.007" x2="682.5" y2="370.007" stroke="black"/>
<path d="M167.004 393H176.645V407.857H283.491V393H293V419H167L167.004 393Z" fill="black"/>
<path d="M298 95.0308V95.5308H299V95.0308H298ZM299 90.5308C299 90.2546 298.776 90.0308 298.5 90.0308C298.224 90.0308 298 90.2546 298 90.5308H299ZM299 95.0308V90.5308H298V95.0308H299Z" fill="#FB0A0A"/>
<path d="M550 179C550 178.724 549.776 178.5 549.5 178.5C549.224 178.5 549 178.724 549 179L550 179ZM550 205L550 179L549 179L549 205L550 205Z" fill="#FB0A0A"/>
<path d="M424 75.0046V75.5046H425V75.0046H424ZM425 72.0046C425 71.7285 424.776 71.5046 424.5 71.5046C424.224 71.5046 424 71.7285 424 72.0046H425ZM425 75.0046V72.0046H424V75.0046H425Z" fill="#FB0A0A"/>
<line x1="683.5" y1="301" x2="683.5" y2="294" stroke="#FB0A0A"/>
<defs>
<clipPath id="clip0_1_41">
<rect width="129" height="145" fill="white" transform="translate(41 136)"/>
</clipPath>
<clipPath id="clip1_1_41">
<rect width="128" height="148" fill="white" transform="translate(170 76)"/>
</clipPath>
<clipPath id="clip2_1_41">
<rect width="126" height="94" fill="white" transform="translate(298 14)"/>
</clipPath>
<clipPath id="clip3_1_41">
<rect width="126" height="177" fill="white" transform="translate(424 52)"/>
</clipPath>
<clipPath id="clip4_1_41">
<rect width="134" height="205" fill="white" transform="translate(549 124)"/>
</clipPath>
<clipPath id="clip5_1_41">
<rect width="106" height="205" fill="white" transform="translate(683 164)"/>
</clipPath>
</defs>
</svg>
