<svg width="822" height="467" viewBox="0 0 822 467" fill="none" xmlns="http://www.w3.org/2000/svg">
<path d="M48 145.177L65.8169 161.164C83.6339 177.152 119.164 209.126 155.006 203.83C190.484 198.135 226.169 156.168 261.492 123.894C297.333 92.2186 333.175 70.236 368.497 65.2399C404.183 60.2439 439.661 70.236 475.503 97.2147C511.033 124.193 546.667 166.16 582.508 209.126C617.883 252.092 653.672 294.059 688.994 294.359C724.784 294.059 760.158 252.092 778.339 230.409L796 209.126V369H778.183C760.366 369 724.836 369 688.994 369C653.516 369 617.831 369 582.508 369C546.667 369 510.825 369 475.503 369C439.817 369 404.339 369 368.497 369C332.967 369 297.333 369 261.492 369C226.118 369 190.328 369 155.006 369C119.216 369 83.8417 369 65.6611 369H48V145.177Z" fill="#0099FF"/>
<path d="M821.058 372.063C821.645 371.479 821.648 370.529 821.063 369.942L811.542 360.371C810.958 359.784 810.008 359.782 809.421 360.366C808.834 360.95 808.831 361.9 809.415 362.487L817.879 370.995L809.371 379.458C808.784 380.042 808.782 380.992 809.366 381.579C809.95 382.166 810.9 382.169 811.487 381.585L821.058 372.063ZM47.9961 370.5L819.996 372.5L820.004 369.5L48.0039 367.5L47.9961 370.5Z" fill="black"/>
<path d="M49.0607 0.93934C48.4749 0.353553 47.5251 0.353553 46.9393 0.93934L37.3934 10.4853C36.8076 11.0711 36.8076 12.0208 37.3934 12.6066C37.9792 13.1924 38.9289 13.1924 39.5147 12.6066L48 4.12132L56.4853 12.6066C57.0711 13.1924 58.0208 13.1924 58.6066 12.6066C59.1924 12.0208 59.1924 11.0711 58.6066 10.4853L49.0607 0.93934ZM49.5 369L49.5 2H46.5L46.5 369H49.5Z" fill="black"/>
<path d="M24.9545 52.1818V40.6477H24.6705C24.4242 41.0455 24.0739 41.5473 23.6193 42.1534C23.1648 42.75 22.5161 43.285 21.6733 43.7585C20.8305 44.2225 19.7083 44.4545 18.3068 44.4545C16.4886 44.4545 14.8835 43.9953 13.4915 43.0767C12.0994 42.1487 11.0104 40.8419 10.2244 39.1562C9.43845 37.4612 9.04545 35.4583 9.04545 33.1477C9.04545 30.8561 9.43845 28.8674 10.2244 27.1818C11.0104 25.4962 12.1042 24.1941 13.5057 23.2756C14.9072 22.357 16.5265 21.8977 18.3636 21.8977C19.7841 21.8977 20.9063 22.1345 21.7301 22.608C22.5634 23.072 23.1979 23.6023 23.6335 24.1989C24.0786 24.786 24.4242 25.2689 24.6705 25.6477H25.0682V22.1818H28.3068V52.1818H24.9545ZM18.7614 41.4432C20.1061 41.4432 21.2424 41.0928 22.1705 40.392C23.0985 39.6818 23.804 38.7017 24.2869 37.4517C24.7699 36.1922 25.0114 34.7386 25.0114 33.0909C25.0114 31.4621 24.7746 30.0369 24.3011 28.8153C23.8277 27.5843 23.1269 26.6278 22.1989 25.946C21.2708 25.2547 20.125 24.9091 18.7614 24.9091C17.3409 24.9091 16.1572 25.2737 15.2102 26.0028C14.2727 26.7225 13.5672 27.7027 13.0938 28.9432C12.6297 30.1742 12.3977 31.5568 12.3977 33.0909C12.3977 34.6439 12.6345 36.0549 13.108 37.3239C13.5909 38.5833 14.3011 39.5871 15.2386 40.3352C16.1856 41.0739 17.3598 41.4432 18.7614 41.4432Z" fill="black"/>
<path d="M808.557 388.182V391.023H797.25V388.182H808.557ZM800.545 382.955H803.898V403.75C803.898 404.697 804.035 405.407 804.31 405.881C804.594 406.345 804.954 406.657 805.389 406.818C805.834 406.97 806.303 407.045 806.795 407.045C807.165 407.045 807.468 407.027 807.705 406.989C807.941 406.941 808.131 406.903 808.273 406.875L808.955 409.886C808.727 409.972 808.41 410.057 808.003 410.142C807.596 410.237 807.08 410.284 806.455 410.284C805.508 410.284 804.58 410.08 803.67 409.673C802.771 409.266 802.023 408.646 801.426 407.812C800.839 406.979 800.545 405.928 800.545 404.659V382.955Z" fill="black"/>
<path d="M228.307 458.455C226.489 458.455 224.884 457.995 223.491 457.077C222.099 456.149 221.01 454.842 220.224 453.156C219.438 451.461 219.045 449.458 219.045 447.148C219.045 444.856 219.438 442.867 220.224 441.182C221.01 439.496 222.104 438.194 223.506 437.276C224.907 436.357 226.527 435.898 228.364 435.898C229.784 435.898 230.906 436.134 231.73 436.608C232.563 437.072 233.198 437.602 233.634 438.199C234.079 438.786 234.424 439.269 234.67 439.648H234.955V428.909H238.307V458H235.068V454.648H234.67C234.424 455.045 234.074 455.547 233.619 456.153C233.165 456.75 232.516 457.285 231.673 457.759C230.83 458.223 229.708 458.455 228.307 458.455ZM228.761 455.443C230.106 455.443 231.242 455.093 232.17 454.392C233.098 453.682 233.804 452.702 234.287 451.452C234.77 450.192 235.011 448.739 235.011 447.091C235.011 445.462 234.775 444.037 234.301 442.815C233.828 441.584 233.127 440.628 232.199 439.946C231.271 439.255 230.125 438.909 228.761 438.909C227.341 438.909 226.157 439.274 225.21 440.003C224.273 440.723 223.567 441.703 223.094 442.943C222.63 444.174 222.398 445.557 222.398 447.091C222.398 448.644 222.634 450.055 223.108 451.324C223.591 452.583 224.301 453.587 225.239 454.335C226.186 455.074 227.36 455.443 228.761 455.443ZM254.401 436.182V439.023H243.094V436.182H254.401ZM246.389 430.955H249.741V451.75C249.741 452.697 249.879 453.407 250.153 453.881C250.438 454.345 250.797 454.657 251.233 454.818C251.678 454.97 252.147 455.045 252.639 455.045C253.009 455.045 253.312 455.027 253.548 454.989C253.785 454.941 253.974 454.903 254.116 454.875L254.798 457.886C254.571 457.972 254.254 458.057 253.847 458.142C253.439 458.237 252.923 458.284 252.298 458.284C251.351 458.284 250.423 458.08 249.514 457.673C248.615 457.266 247.866 456.646 247.27 455.812C246.683 454.979 246.389 453.928 246.389 452.659V430.955Z" fill="black"/>
<path d="M179.004 393H188.645V407.857H295.491V393H305V419H179L179.004 393Z" fill="black"/>
<line x1="0.64902" y1="105.239" x2="177.649" y2="256.239" stroke="#360DDA" stroke-width="2"/>
<line x1="176.242" y1="256.348" x2="306.242" y2="105.348" stroke="#360DDA" stroke-width="2"/>
<line x1="304.638" y1="106.068" x2="430.638" y2="57.068" stroke="#360DDA" stroke-width="2"/>
<line x1="555.461" y1="136.842" x2="430.461" y2="56.8423" stroke="#360DDA" stroke-width="2"/>
<line x1="555.783" y1="136.378" x2="691.783" y2="307.378" stroke="#360DDA" stroke-width="2"/>
<line x1="796.451" y1="254.893" x2="691.451" y2="307.893" stroke="#360DDA" stroke-width="2"/>
<line x1="177.5" y1="255.991" x2="177.5" y2="369.009" stroke="black"/>
<line x1="304.5" y1="105.976" x2="304.5" y2="369.024" stroke="black"/>
<line x1="430.5" y1="71.9948" x2="430.5" y2="370.026" stroke="black"/>
<line x1="556.5" y1="178.01" x2="552.5" y2="371.01" stroke="black"/>
<line x1="691.5" y1="306.016" x2="689.5" y2="370.016" stroke="black"/>
<path d="M557 137C557 136.724 556.776 136.5 556.5 136.5C556.224 136.5 556 136.724 556 137H557ZM557 178V137H556V178H557Z" fill="#FB0A0A"/>
<path d="M431 57C431 56.7239 430.776 56.5 430.5 56.5C430.224 56.5 430 56.7239 430 57H431ZM431 73V57H430V73H431Z" fill="#FB0A0A"/>
<path d="M305 91C305 90.7239 304.776 90.5 304.5 90.5C304.224 90.5 304 90.7239 304 91H305ZM305 106V91H304V106H305Z" fill="#FB0A0A"/>
<path d="M178 196C178 195.724 177.776 195.5 177.5 195.5C177.224 195.5 177 195.724 177 196H178ZM178 256V196H177V256H178Z" fill="#FB0A0A"/>
<path d="M692 294.5C692 294.224 691.776 294 691.5 294C691.224 294 691 294.224 691 294.5H692ZM692 306V294.5H691V306H692Z" fill="#FB0A0A"/>
</svg>
